# xmcd
#
# Track frame offsets: 
#        150
#        15365
#        30416
#        69023
#        98612
#        112371
#        123738
#        163141
#        175682
#        186350
#        197353
#
# Disc length: 2766 seconds
#
# Revision: 0
# Processed by: cddbd v1.5.1PL0 Copyright (c) Steve Scherf et al.
# Submitted via: ExactAudioCopy v0.95a2
#
DISCID=870acc0b
DTITLE=Johnny Mards - Mighty Mars
DYEAR=2000
DGENRE=Blues
TTITLE0=Horses and Places
TTITLE1=Imagination
TTITLE2=Desert Island
TTITLE3=Johnny's Groove
TTITLE4=Cash Ain't Nothing
TTITLE5=I'll Go Crazy
TTITLE6=If I Had A Woman
TTITLE7=Watch Yourself
TTITLE8=Mighty Mars
TTITLE9=Rocket 88
TTITLE10=Mellow Down
EXTD=
EXTT0=
EXTT1=
EXTT2=
EXTT3=
EXTT4=
EXTT5=
EXTT6=
EXTT7=
EXTT8=
EXTT9=
EXTT10=
PLAYORDER=
